<svg id="Layer_1" enable-background="new 0 0 512 351.6" height="512" viewBox="0 0 512 351.6" width="512" xmlns="http://www.w3.org/2000/svg"><g><g><path d="m503.9 346.1c-4 3.5-9.2 5.5-15 5.5h-465.9c-5.7 0-10.9-2.1-15-5.5l248-170.3z" fill="#ffccd7"/><path d="m512 23v305.6c0 7-3.1 13.3-8.1 17.5l-247.9-170.3 247.9-170.3c5 4.3 8.1 10.5 8.1 17.5z" fill="#ffe3ea"/><path d="m256 175.8-248 170.3c-4.9-4.2-8-10.5-8-17.5v-305.6c0-7 3.1-13.3 8.1-17.5z" fill="#ffe3ea"/><path d="m503.9 5.5-247.9 170.3-247.9-170.3c4-3.5 9.2-5.5 15-5.5h466c5.6 0 10.8 2.1 14.8 5.5z" fill="#ffccd7"/></g><g><path d="m256 134.9c-42.9-42.9-82.1.5-72.1 36.8 0 0 4.5 21.8 37.7 44.5 8.6 5.9 19.2 11.9 32.2 17.8 1.4.6 3 .6 4.4 0 13-5.9 23.6-11.9 32.2-17.8 33.2-22.7 37.7-44.5 37.7-44.5 10-36.2-29.2-79.7-72.1-36.8z" fill="#ff5c5c"/><path d="m256 135v99.6c.8 0 1.5-.2 2.2-.5 13-5.9 23.6-11.9 32.2-17.8 33.2-22.7 37.7-44.5 37.7-44.5 10-36.3-29.2-79.8-72.1-36.8z" fill="#f43838"/></g></g></svg>